<svg width="240" height="21" viewBox="0 0 240 21" fill="none" xmlns="http://www.w3.org/2000/svg">
<g id="MAIN LOGO">
<g id="OWLSOME STUDIO">
<path d="M0.0888672 10.48C0.0888672 8.89333 0.340867 7.484 0.844867 6.252C1.36753 5.00133 2.0862 3.94667 3.00087 3.088C3.9342 2.22933 5.04487 1.576 6.33287 1.128C7.62087 0.680001 9.0302 0.456001 10.5609 0.456001C12.1102 0.456001 13.5289 0.680001 14.8169 1.128C16.1049 1.576 17.2062 2.22933 18.1209 3.088C19.0542 3.94667 19.7729 5.00133 20.2769 6.252C20.7995 7.484 21.0609 8.89333 21.0609 10.48C21.0609 12.0667 20.7995 13.4853 20.2769 14.736C19.7729 15.968 19.0542 17.0133 18.1209 17.872C17.2062 18.7307 16.1049 19.3747 14.8169 19.804C13.5289 20.2147 12.1102 20.42 10.5609 20.42C9.0302 20.42 7.62087 20.2147 6.33287 19.804C5.04487 19.3747 3.9342 18.7307 3.00087 17.872C2.0862 17.0133 1.36753 15.968 0.844867 14.736C0.340867 13.4853 0.0888672 12.0667 0.0888672 10.48ZM18.3169 10.48C18.3169 8.93067 18.1209 7.596 17.7289 6.476C17.3369 5.33733 16.7862 4.404 16.0769 3.676C15.3862 2.92933 14.5649 2.37867 13.6129 2.024C12.6795 1.66933 11.6622 1.492 10.5609 1.492C9.4782 1.492 8.46087 1.66933 7.50887 2.024C6.57553 2.37867 5.7542 2.92933 5.04487 3.676C4.3542 4.404 3.81287 5.33733 3.42087 6.476C3.02887 7.596 2.83287 8.93067 2.83287 10.48C2.83287 12.0293 3.02887 13.3733 3.42087 14.512C3.81287 15.632 4.3542 16.5653 5.04487 17.312C5.7542 18.04 6.57553 18.5813 7.50887 18.936C8.46087 19.2907 9.4782 19.468 10.5609 19.468C11.6622 19.468 12.6795 19.2907 13.6129 18.936C14.5649 18.5813 15.3862 18.04 16.0769 17.312C16.7862 16.5653 17.3369 15.632 17.7289 14.512C18.1209 13.3733 18.3169 12.0293 18.3169 10.48Z" fill="black"/>
<path d="M27.3169 20.056C27.1676 19.5893 26.9342 18.852 26.6169 17.844C26.3182 16.836 25.9729 15.6973 25.5809 14.428C25.1889 13.1587 24.7782 11.8333 24.3489 10.452C23.9196 9.052 23.5089 7.72667 23.1169 6.476C22.7249 5.20667 22.3609 4.068 22.0249 3.06C21.7076 2.052 21.4556 1.30533 21.2689 0.82C21.5116 0.857334 21.7449 0.894667 21.9689 0.932C22.1929 0.950668 22.4262 0.960001 22.6689 0.960001C22.9116 0.960001 23.1449 0.950668 23.3689 0.932C23.5929 0.894667 23.8262 0.857334 24.0689 0.82C24.4236 2.23867 24.7689 3.57333 25.1049 4.824C25.4409 6.056 25.7956 7.316 26.1689 8.604C26.5609 9.87333 26.9716 11.2173 27.4009 12.636C27.8489 14.036 28.3529 15.6227 28.9129 17.396H28.9689C29.1369 16.892 29.3702 16.2013 29.6689 15.324C29.9676 14.428 30.2942 13.448 30.6489 12.384C31.0036 11.3013 31.3769 10.1813 31.7689 9.024C32.1609 7.86667 32.5249 6.76533 32.8609 5.72C33.1969 4.656 33.4956 3.69467 33.7569 2.836C34.0182 1.95867 34.2049 1.28667 34.3169 0.82C34.6902 0.913334 34.9982 0.960001 35.2409 0.960001C35.4836 0.960001 35.7916 0.913334 36.1649 0.82C36.2956 1.324 36.4916 2.01467 36.7529 2.892C37.0329 3.76933 37.3409 4.74933 37.6769 5.832C38.0129 6.896 38.3676 8.00667 38.7409 9.164C39.1329 10.3213 39.5062 11.432 39.8609 12.496C40.2156 13.56 40.5329 14.5213 40.8129 15.38C41.1116 16.2387 41.3449 16.9107 41.5129 17.396H41.5689C41.6996 16.9853 41.8956 16.3507 42.1569 15.492C42.4369 14.6147 42.7449 13.6347 43.0809 12.552C43.4356 11.4507 43.7902 10.3027 44.1449 9.108C44.5182 7.89467 44.8636 6.74667 45.1809 5.664C45.5169 4.56267 45.8062 3.58267 46.0489 2.724C46.3102 1.86533 46.4876 1.23067 46.5809 0.82C46.7489 0.857334 46.9076 0.894667 47.0569 0.932C47.2249 0.950668 47.3929 0.960001 47.5609 0.960001C47.7289 0.960001 47.8876 0.950668 48.0369 0.932C48.2049 0.894667 48.3729 0.857334 48.5409 0.82C48.3542 1.24933 48.0836 1.95867 47.7289 2.948C47.3742 3.93733 46.9729 5.06667 46.5249 6.336C46.0956 7.60533 45.6382 8.94933 45.1529 10.368C44.6862 11.7867 44.2289 13.14 43.7809 14.428C43.3516 15.6973 42.9596 16.8453 42.6049 17.872C42.2689 18.88 42.0169 19.608 41.8489 20.056C41.5502 20.0187 41.2329 20 40.8969 20C40.5609 20 40.2436 20.0187 39.9449 20.056C39.1049 17.4613 38.2742 14.8573 37.4529 12.244C36.6316 9.612 35.7449 6.896 34.7929 4.096H34.7369C34.5876 4.52533 34.3822 5.104 34.1209 5.832C33.8782 6.54133 33.5982 7.344 33.2809 8.24C32.9822 9.136 32.6556 10.0973 32.3009 11.124C31.9462 12.1507 31.5916 13.1867 31.2369 14.232C30.8822 15.2773 30.5369 16.304 30.2009 17.312C29.8649 18.32 29.5569 19.2347 29.2769 20.056C28.9782 20.0187 28.6516 20 28.2969 20C27.9422 20 27.6156 20.0187 27.3169 20.056Z" fill="black"/>
<path d="M50.8089 8.072C50.8089 6.84 50.7809 5.636 50.7249 4.46C50.6876 3.26533 50.6409 2.052 50.5849 0.82C50.8276 0.857334 51.0609 0.894667 51.2849 0.932C51.5089 0.950668 51.7329 0.960001 51.9569 0.960001C52.1809 0.960001 52.4049 0.950668 52.6289 0.932C52.8529 0.894667 53.0862 0.857334 53.3289 0.82C53.2729 2.052 53.2169 3.26533 53.1609 4.46C53.1236 5.636 53.1049 6.84 53.1049 8.072C53.1049 10.424 53.1142 12.468 53.1329 14.204C53.1516 15.9213 53.1702 17.4613 53.1889 18.824C54.5142 18.824 55.7836 18.8147 56.9969 18.796C58.2102 18.7587 59.5169 18.6467 60.9169 18.46C60.8236 18.796 60.7769 19.076 60.7769 19.3C60.7769 19.5053 60.8236 19.7573 60.9169 20.056C60.0582 20.0187 59.1996 20 58.3409 20C57.4822 20 56.6236 20 55.7649 20C54.8689 20 54.0009 20 53.1609 20C52.3396 20 51.4809 20.0187 50.5849 20.056C50.6409 18.8987 50.6876 17.7227 50.7249 16.528C50.7809 15.3333 50.8089 14.12 50.8089 12.888V8.072Z" fill="black"/>
<path d="M63.3529 16.416C63.5022 16.752 63.6982 17.0973 63.9409 17.452C64.2022 17.788 64.5102 18.096 64.8649 18.376C65.2382 18.656 65.6676 18.8893 66.1529 19.076C66.6382 19.244 67.1796 19.328 67.7769 19.328C68.3929 19.328 68.9436 19.2253 69.4289 19.02C69.9329 18.796 70.3529 18.5067 70.6889 18.152C71.0436 17.7787 71.3142 17.3493 71.5009 16.864C71.6876 16.36 71.7809 15.828 71.7809 15.268C71.7809 14.4093 71.5569 13.728 71.1089 13.224C70.6796 12.72 70.1382 12.3 69.4849 11.964C68.8316 11.628 68.1222 11.32 67.3569 11.04C66.6102 10.76 65.9102 10.4147 65.2569 10.004C64.6036 9.57467 64.0529 9.03333 63.6049 8.38C63.1756 7.72667 62.9609 6.84933 62.9609 5.748C62.9609 4.964 63.1009 4.25467 63.3809 3.62C63.6609 2.96667 64.0622 2.40667 64.5849 1.94C65.1262 1.47333 65.7702 1.10933 66.5169 0.848001C67.2636 0.586668 68.1036 0.456001 69.0369 0.456001C69.9329 0.456001 70.7076 0.568001 71.3609 0.792C72.0142 0.997334 72.6209 1.324 73.1809 1.772C73.0129 2.08933 72.8729 2.42533 72.7609 2.78C72.6489 3.13467 72.5369 3.58267 72.4249 4.124H72.0889C71.9956 3.86267 71.8649 3.58267 71.6969 3.284C71.5476 2.96667 71.3329 2.67733 71.0529 2.416C70.7916 2.15467 70.4742 1.94 70.1009 1.772C69.7276 1.58533 69.2796 1.492 68.7569 1.492C68.2342 1.492 67.7489 1.576 67.3009 1.744C66.8716 1.912 66.4889 2.15467 66.1529 2.472C65.8356 2.77067 65.5836 3.13467 65.3969 3.564C65.2289 3.99333 65.1449 4.46 65.1449 4.964C65.1449 5.84133 65.3596 6.532 65.7889 7.036C66.2369 7.54 66.7876 7.96933 67.4409 8.324C68.0942 8.66 68.7942 8.968 69.5409 9.248C70.3062 9.50933 71.0156 9.836 71.6689 10.228C72.3222 10.62 72.8636 11.124 73.2929 11.74C73.7409 12.356 73.9649 13.1773 73.9649 14.204C73.9649 15.0627 73.8062 15.8747 73.4889 16.64C73.1902 17.4053 72.7422 18.0773 72.1449 18.656C71.5662 19.216 70.8476 19.6547 69.9889 19.972C69.1489 20.2707 68.1876 20.42 67.1049 20.42C65.9476 20.42 65.0049 20.2707 64.2769 19.972C63.5676 19.6547 62.9702 19.3 62.4849 18.908C62.6529 18.4787 62.7649 18.096 62.8209 17.76C62.8956 17.4053 62.9609 16.9573 63.0169 16.416H63.3529Z" fill="black"/>
<path d="M75.5609 10.48C75.5609 8.89333 75.8129 7.484 76.3169 6.252C76.8396 5.00133 77.5582 3.94667 78.4729 3.088C79.4062 2.22933 80.5169 1.576 81.8049 1.128C83.0929 0.680001 84.5022 0.456001 86.0329 0.456001C87.5822 0.456001 89.0009 0.680001 90.2889 1.128C91.5769 1.576 92.6782 2.22933 93.5929 3.088C94.5262 3.94667 95.2449 5.00133 95.7489 6.252C96.2716 7.484 96.5329 8.89333 96.5329 10.48C96.5329 12.0667 96.2716 13.4853 95.7489 14.736C95.2449 15.968 94.5262 17.0133 93.5929 17.872C92.6782 18.7307 91.5769 19.3747 90.2889 19.804C89.0009 20.2147 87.5822 20.42 86.0329 20.42C84.5022 20.42 83.0929 20.2147 81.8049 19.804C80.5169 19.3747 79.4062 18.7307 78.4729 17.872C77.5582 17.0133 76.8396 15.968 76.3169 14.736C75.8129 13.4853 75.5609 12.0667 75.5609 10.48ZM93.7889 10.48C93.7889 8.93067 93.5929 7.596 93.2009 6.476C92.8089 5.33733 92.2582 4.404 91.5489 3.676C90.8582 2.92933 90.0369 2.37867 89.0849 2.024C88.1516 1.66933 87.1342 1.492 86.0329 1.492C84.9502 1.492 83.9329 1.66933 82.9809 2.024C82.0476 2.37867 81.2262 2.92933 80.5169 3.676C79.8262 4.404 79.2849 5.33733 78.8929 6.476C78.5009 7.596 78.3049 8.93067 78.3049 10.48C78.3049 12.0293 78.5009 13.3733 78.8929 14.512C79.2849 15.632 79.8262 16.5653 80.5169 17.312C81.2262 18.04 82.0476 18.5813 82.9809 18.936C83.9329 19.2907 84.9502 19.468 86.0329 19.468C87.1342 19.468 88.1516 19.2907 89.0849 18.936C90.0369 18.5813 90.8582 18.04 91.5489 17.312C92.2582 16.5653 92.8089 15.632 93.2009 14.512C93.5929 13.3733 93.7889 12.0293 93.7889 10.48Z" fill="black"/>
<path d="M101.405 0.456001C102.693 3.10667 103.99 5.68267 105.297 8.184C106.622 10.6853 108.004 13.252 109.441 15.884C109.628 15.5293 109.898 15.0253 110.253 14.372C110.608 13.7 111.018 12.9347 111.485 12.076C111.952 11.2173 112.446 10.2933 112.969 9.304C113.51 8.296 114.052 7.27867 114.593 6.252C115.153 5.22533 115.704 4.21733 116.245 3.228C116.786 2.23867 117.29 1.31467 117.757 0.456001H118.121C118.326 2.248 118.513 3.984 118.681 5.664C118.868 7.32533 119.054 8.968 119.241 10.592C119.428 12.1973 119.614 13.7933 119.801 15.38C119.988 16.948 120.193 18.5067 120.417 20.056C120.193 20.0187 119.969 20 119.745 20C119.54 20 119.325 20 119.101 20C118.877 20 118.653 20 118.429 20C118.224 20 118.009 20.0187 117.785 20.056C117.58 17.5733 117.374 15.1653 117.169 12.832C116.964 10.4987 116.712 8.11867 116.413 5.692H116.357C115.069 8.044 113.8 10.3867 112.549 12.72C111.317 15.0347 110.141 17.4613 109.021 20H108.769C107.649 17.648 106.473 15.296 105.241 12.944C104.028 10.5733 102.805 8.156 101.573 5.692H101.517C101.386 6.84933 101.237 8.10933 101.069 9.472C100.92 10.816 100.78 12.1507 100.649 13.476C100.518 14.7827 100.406 16.024 100.313 17.2C100.22 18.3573 100.173 19.3093 100.173 20.056C99.8745 20.0187 99.5478 20 99.1931 20C98.8385 20 98.5118 20.0187 98.2131 20.056C98.4558 18.544 98.7078 16.948 98.9691 15.268C99.2305 13.588 99.4825 11.8987 99.7251 10.2C99.9678 8.50133 100.192 6.83067 100.397 5.188C100.602 3.52667 100.78 1.94933 100.929 0.456001H101.405Z" fill="black"/>
<path d="M123.656 8.044C123.656 6.812 123.628 5.59867 123.572 4.404C123.535 3.20933 123.488 2.01467 123.432 0.82C124.272 0.857334 125.103 0.894667 125.924 0.932C126.764 0.950668 127.604 0.960001 128.444 0.960001C129.284 0.960001 130.115 0.950668 130.936 0.932C131.757 0.894667 132.588 0.857334 133.428 0.82C133.372 1.1 133.344 1.38 133.344 1.66C133.344 1.94 133.372 2.22 133.428 2.5C132.831 2.46267 132.28 2.42533 131.776 2.388C131.291 2.35067 130.768 2.31333 130.208 2.276C129.667 2.23867 129.069 2.21067 128.416 2.192C127.763 2.15467 126.979 2.136 126.064 2.136C126.045 2.73333 126.017 3.30267 125.98 3.844C125.961 4.38533 125.952 5.00133 125.952 5.692C125.952 6.42 125.952 7.12933 125.952 7.82C125.971 8.51067 125.98 9.03333 125.98 9.388C126.801 9.388 127.539 9.37867 128.192 9.36C128.845 9.34133 129.443 9.32267 129.984 9.304C130.525 9.26667 131.02 9.23867 131.468 9.22C131.935 9.18267 132.373 9.14533 132.784 9.108C132.728 9.388 132.7 9.67733 132.7 9.976C132.7 10.256 132.728 10.536 132.784 10.816C132.299 10.76 131.729 10.7133 131.076 10.676C130.441 10.6387 129.797 10.62 129.144 10.62C128.509 10.6013 127.903 10.592 127.324 10.592C126.764 10.5733 126.316 10.564 125.98 10.564C125.98 10.732 125.971 10.9187 125.952 11.124C125.952 11.3107 125.952 11.5533 125.952 11.852V14.624C125.952 15.688 125.952 16.5653 125.952 17.256C125.971 17.9467 125.989 18.4693 126.008 18.824C126.624 18.824 127.277 18.824 127.968 18.824C128.677 18.824 129.368 18.8147 130.04 18.796C130.731 18.7587 131.375 18.7213 131.972 18.684C132.588 18.628 133.12 18.5533 133.568 18.46C133.531 18.5907 133.503 18.74 133.484 18.908C133.484 19.0573 133.484 19.1973 133.484 19.328C133.484 19.6267 133.512 19.8693 133.568 20.056C132.728 20.0187 131.888 20 131.048 20C130.227 20 129.387 20 128.528 20C127.669 20 126.82 20 125.98 20C125.14 20 124.291 20.0187 123.432 20.056C123.488 18.8613 123.535 17.676 123.572 16.5C123.628 15.3053 123.656 14.092 123.656 12.86V8.044Z" fill="black"/>
<path d="M143.153 16.416C143.302 16.752 143.498 17.0973 143.741 17.452C144.002 17.788 144.31 18.096 144.665 18.376C145.038 18.656 145.468 18.8893 145.953 19.076C146.438 19.244 146.98 19.328 147.577 19.328C148.193 19.328 148.744 19.2253 149.229 19.02C149.733 18.796 150.153 18.5067 150.489 18.152C150.844 17.7787 151.114 17.3493 151.301 16.864C151.488 16.36 151.581 15.828 151.581 15.268C151.581 14.4093 151.357 13.728 150.909 13.224C150.48 12.72 149.938 12.3 149.285 11.964C148.632 11.628 147.922 11.32 147.157 11.04C146.41 10.76 145.71 10.4147 145.057 10.004C144.404 9.57467 143.853 9.03333 143.405 8.38C142.976 7.72667 142.761 6.84933 142.761 5.748C142.761 4.964 142.901 4.25467 143.181 3.62C143.461 2.96667 143.862 2.40667 144.385 1.94C144.926 1.47333 145.57 1.10933 146.317 0.848001C147.064 0.586668 147.904 0.456001 148.837 0.456001C149.733 0.456001 150.508 0.568001 151.161 0.792C151.814 0.997334 152.421 1.324 152.981 1.772C152.813 2.08933 152.673 2.42533 152.561 2.78C152.449 3.13467 152.337 3.58267 152.225 4.124H151.889C151.796 3.86267 151.665 3.58267 151.497 3.284C151.348 2.96667 151.133 2.67733 150.853 2.416C150.592 2.15467 150.274 1.94 149.901 1.772C149.528 1.58533 149.08 1.492 148.557 1.492C148.034 1.492 147.549 1.576 147.101 1.744C146.672 1.912 146.289 2.15467 145.953 2.472C145.636 2.77067 145.384 3.13467 145.197 3.564C145.029 3.99333 144.945 4.46 144.945 4.964C144.945 5.84133 145.16 6.532 145.589 7.036C146.037 7.54 146.588 7.96933 147.241 8.324C147.894 8.66 148.594 8.968 149.341 9.248C150.106 9.50933 150.816 9.836 151.469 10.228C152.122 10.62 152.664 11.124 153.093 11.74C153.541 12.356 153.765 13.1773 153.765 14.204C153.765 15.0627 153.606 15.8747 153.289 16.64C152.99 17.4053 152.542 18.0773 151.945 18.656C151.366 19.216 150.648 19.6547 149.789 19.972C148.949 20.2707 147.988 20.42 146.905 20.42C145.748 20.42 144.805 20.2707 144.077 19.972C143.368 19.6547 142.77 19.3 142.285 18.908C142.453 18.4787 142.565 18.096 142.621 17.76C142.696 17.4053 142.761 16.9573 142.817 16.416H143.153Z" fill="black"/>
<path d="M160.821 8.072C160.821 6.13067 160.793 4.19867 160.737 2.276C160.252 2.276 159.738 2.28533 159.197 2.304C158.674 2.304 158.142 2.32267 157.601 2.36C157.078 2.37867 156.565 2.40667 156.061 2.444C155.576 2.48133 155.137 2.528 154.745 2.584C154.838 2.248 154.885 1.94933 154.885 1.688C154.885 1.48267 154.838 1.19333 154.745 0.82C155.977 0.857334 157.181 0.894667 158.357 0.932C159.533 0.950668 160.737 0.960001 161.969 0.960001C163.201 0.960001 164.405 0.950668 165.581 0.932C166.757 0.894667 167.961 0.857334 169.193 0.82C169.1 1.19333 169.053 1.492 169.053 1.716C169.053 1.95867 169.1 2.248 169.193 2.584C168.801 2.528 168.353 2.48133 167.849 2.444C167.364 2.40667 166.85 2.37867 166.309 2.36C165.786 2.32267 165.254 2.304 164.713 2.304C164.19 2.28533 163.686 2.276 163.201 2.276C163.145 4.19867 163.117 6.13067 163.117 8.072V12.888C163.117 14.12 163.136 15.3333 163.173 16.528C163.229 17.7227 163.285 18.8987 163.341 20.056C162.912 20.0187 162.454 20 161.969 20C161.484 20 161.026 20.0187 160.597 20.056C160.653 18.8987 160.7 17.7227 160.737 16.528C160.793 15.3333 160.821 14.12 160.821 12.888V8.072Z" fill="black"/>
<path d="M186.235 9.92C186.235 7.26933 186.226 5.22533 186.207 3.788C186.189 2.35067 186.142 1.36133 186.067 0.82C186.273 0.857334 186.469 0.894667 186.655 0.932C186.842 0.950668 187.029 0.960001 187.215 0.960001C187.458 0.960001 187.738 0.913334 188.055 0.82C187.999 1.47333 187.943 2.25733 187.887 3.172C187.831 4.068 187.785 5.03867 187.747 6.084C187.71 7.11067 187.673 8.17467 187.635 9.276C187.598 10.3587 187.57 11.4133 187.551 12.44C187.533 13.6907 187.337 14.8107 186.963 15.8C186.609 16.7893 186.095 17.6293 185.423 18.32C184.751 19.0107 183.921 19.5333 182.931 19.888C181.961 20.2427 180.841 20.42 179.571 20.42C176.771 20.42 174.737 19.7853 173.467 18.516C172.198 17.2467 171.563 15.24 171.563 12.496C171.563 11.6187 171.582 10.844 171.619 10.172C171.675 9.48133 171.703 8.78133 171.703 8.072C171.703 6.504 171.685 5.11333 171.647 3.9C171.61 2.68667 171.573 1.66 171.535 0.82C171.759 0.857334 172.002 0.894667 172.263 0.932C172.525 0.950668 172.767 0.960001 172.991 0.960001C173.197 0.960001 173.393 0.950668 173.579 0.932C173.785 0.894667 173.99 0.857334 174.195 0.82C174.158 1.23067 174.121 1.772 174.083 2.444C174.046 3.09733 174.009 3.844 173.971 4.684C173.934 5.524 173.906 6.42933 173.887 7.4C173.869 8.37067 173.859 9.37867 173.859 10.424C173.859 11.0587 173.869 11.7213 173.887 12.412C173.906 13.084 173.971 13.7467 174.083 14.4C174.195 15.0347 174.373 15.6507 174.615 16.248C174.877 16.8267 175.241 17.34 175.707 17.788C176.174 18.2173 176.762 18.5627 177.471 18.824C178.181 19.0667 179.058 19.188 180.103 19.188C181.13 19.188 181.989 19.0387 182.679 18.74C183.389 18.4413 183.967 18.0493 184.415 17.564C184.863 17.0787 185.209 16.5187 185.451 15.884C185.713 15.2493 185.899 14.5867 186.011 13.896C186.123 13.2053 186.189 12.5147 186.207 11.824C186.226 11.1333 186.235 10.4987 186.235 9.92Z" fill="black"/>
<path d="M192.6 8.072C192.6 6.84 192.572 5.636 192.516 4.46C192.479 3.26533 192.432 2.052 192.376 0.82C193.086 0.857334 193.786 0.894667 194.476 0.932C195.186 0.950668 195.895 0.960001 196.604 0.960001C197.314 0.960001 198.014 0.941334 198.704 0.904001C199.414 0.848 200.123 0.82 200.832 0.82C202.475 0.82 203.875 1.03467 205.032 1.464C206.208 1.89333 207.17 2.50933 207.916 3.312C208.663 4.096 209.204 5.06667 209.54 6.224C209.895 7.36267 210.072 8.65067 210.072 10.088C210.072 11.9547 209.746 13.532 209.092 14.82C208.458 16.0893 207.636 17.116 206.628 17.9C205.639 18.684 204.538 19.244 203.324 19.58C202.13 19.8973 200.982 20.056 199.88 20.056C199.246 20.056 198.62 20.0467 198.004 20.028C197.388 20.0093 196.763 20 196.128 20C195.494 20 194.868 20 194.252 20C193.636 20 193.011 20.0187 192.376 20.056C192.432 18.8987 192.479 17.7227 192.516 16.528C192.572 15.3333 192.6 14.12 192.6 12.888V8.072ZM194.896 12.888C194.896 14.904 194.952 16.8827 195.064 18.824C195.456 18.9173 195.988 18.992 196.66 19.048C197.332 19.0853 198.023 19.104 198.732 19.104C199.759 19.104 200.786 18.9827 201.812 18.74C202.839 18.4973 203.754 18.04 204.556 17.368C205.378 16.696 206.04 15.7813 206.544 14.624C207.067 13.448 207.328 11.936 207.328 10.088C207.328 8.464 207.123 7.12933 206.712 6.084C206.32 5.03867 205.77 4.21733 205.06 3.62C204.37 3.004 203.539 2.584 202.568 2.36C201.598 2.11733 200.534 1.996 199.376 1.996C198.536 1.996 197.752 2.024 197.024 2.08C196.296 2.136 195.643 2.20133 195.064 2.276C195.008 3.172 194.962 4.11467 194.924 5.104C194.906 6.07467 194.896 7.064 194.896 8.072V12.888Z" fill="black"/>
<path d="M213.553 8.072C213.553 6.84 213.525 5.636 213.469 4.46C213.432 3.26533 213.385 2.052 213.329 0.82C213.572 0.857334 213.805 0.894667 214.029 0.932C214.253 0.950668 214.477 0.960001 214.701 0.960001C214.925 0.960001 215.149 0.950668 215.373 0.932C215.597 0.894667 215.831 0.857334 216.073 0.82C216.017 2.052 215.961 3.26533 215.905 4.46C215.868 5.636 215.849 6.84 215.849 8.072V12.888C215.849 14.12 215.868 15.3333 215.905 16.528C215.961 17.7227 216.017 18.8987 216.073 20.056C215.644 20.0187 215.187 20 214.701 20C214.216 20 213.759 20.0187 213.329 20.056C213.385 18.8987 213.432 17.7227 213.469 16.528C213.525 15.3333 213.553 14.12 213.553 12.888V8.072Z" fill="black"/>
<path d="M218.938 10.48C218.938 8.89333 219.19 7.484 219.694 6.252C220.217 5.00133 220.936 3.94667 221.85 3.088C222.784 2.22933 223.894 1.576 225.182 1.128C226.47 0.680001 227.88 0.456001 229.41 0.456001C230.96 0.456001 232.378 0.680001 233.666 1.128C234.954 1.576 236.056 2.22933 236.97 3.088C237.904 3.94667 238.622 5.00133 239.126 6.252C239.649 7.484 239.91 8.89333 239.91 10.48C239.91 12.0667 239.649 13.4853 239.126 14.736C238.622 15.968 237.904 17.0133 236.97 17.872C236.056 18.7307 234.954 19.3747 233.666 19.804C232.378 20.2147 230.96 20.42 229.41 20.42C227.88 20.42 226.47 20.2147 225.182 19.804C223.894 19.3747 222.784 18.7307 221.85 17.872C220.936 17.0133 220.217 15.968 219.694 14.736C219.19 13.4853 218.938 12.0667 218.938 10.48ZM237.166 10.48C237.166 8.93067 236.97 7.596 236.578 6.476C236.186 5.33733 235.636 4.404 234.926 3.676C234.236 2.92933 233.414 2.37867 232.462 2.024C231.529 1.66933 230.512 1.492 229.41 1.492C228.328 1.492 227.31 1.66933 226.358 2.024C225.425 2.37867 224.604 2.92933 223.894 3.676C223.204 4.404 222.662 5.33733 222.27 6.476C221.878 7.596 221.682 8.93067 221.682 10.48C221.682 12.0293 221.878 13.3733 222.27 14.512C222.662 15.632 223.204 16.5653 223.894 17.312C224.604 18.04 225.425 18.5813 226.358 18.936C227.31 19.2907 228.328 19.468 229.41 19.468C230.512 19.468 231.529 19.2907 232.462 18.936C233.414 18.5813 234.236 18.04 234.926 17.312C235.636 16.5653 236.186 15.632 236.578 14.512C236.97 13.3733 237.166 12.0293 237.166 10.48Z" fill="black"/>
</g>
</g>
</svg>
