<svg width="207" height="18" viewBox="0 0 207 18" fill="none" xmlns="http://www.w3.org/2000/svg">
<g id="MAIN LOGO">
<g id="OWLSOME STUDIO">
<path d="M0 8.65213C0 7.28262 0.217512 6.06616 0.652535 5.00277C1.10367 3.92327 1.72398 3.01294 2.51347 2.27179C3.31907 1.53064 4.27773 0.966718 5.38946 0.580031C6.50118 0.193344 7.71764 0 9.03882 0C10.3761 0 11.6006 0.193344 12.7124 0.580031C13.8241 0.966718 14.7747 1.53064 15.5642 2.27179C16.3698 3.01294 16.9901 3.92327 17.4251 5.00277C17.8762 6.06616 18.1018 7.28262 18.1018 8.65213C18.1018 10.0217 17.8762 11.2462 17.4251 12.3257C16.9901 13.3891 16.3698 14.2913 15.5642 15.0325C14.7747 15.7736 13.8241 16.3295 12.7124 16.7001C11.6006 17.0545 10.3761 17.2318 9.03882 17.2318C7.71764 17.2318 6.50118 17.0545 5.38946 16.7001C4.27773 16.3295 3.31907 15.7736 2.51347 15.0325C1.72398 14.2913 1.10367 13.3891 0.652535 12.3257C0.217512 11.2462 0 10.0217 0 8.65213ZM15.7333 8.65213C15.7333 7.31484 15.5642 6.16283 15.2258 5.19611C14.8875 4.21328 14.4122 3.40768 13.7999 2.77932C13.2038 2.13484 12.4948 1.65953 11.6731 1.35341C10.8675 1.04728 9.98943 0.894215 9.03882 0.894215C8.10433 0.894215 7.22622 1.04728 6.40451 1.35341C5.59891 1.65953 4.88999 2.13484 4.27773 2.77932C3.68159 3.40768 3.21434 4.21328 2.87599 5.19611C2.53764 6.16283 2.36846 7.31484 2.36846 8.65213C2.36846 9.98943 2.53764 11.1495 2.87599 12.1323C3.21434 13.099 3.68159 13.9046 4.27773 14.5491C4.88999 15.1775 5.59891 15.6447 6.40451 15.9509C7.22622 16.257 8.10433 16.4101 9.03882 16.4101C9.98943 16.4101 10.8675 16.257 11.6731 15.9509C12.4948 15.6447 13.2038 15.1775 13.7999 14.5491C14.4122 13.9046 14.8875 13.099 15.2258 12.1323C15.5642 11.1495 15.7333 9.98943 15.7333 8.65213Z" fill="white"/>
<path d="M23.5017 16.9176C23.3728 16.5148 23.1714 15.8784 22.8975 15.0083C22.6397 14.1383 22.3416 13.1554 22.0032 12.0598C21.6649 10.9642 21.3104 9.82025 20.9398 8.62797C20.5693 7.41957 20.2148 6.27562 19.8765 5.19611C19.5381 4.1005 19.2239 3.11767 18.9339 2.24762C18.66 1.37757 18.4425 0.733094 18.2814 0.314182C18.4908 0.346407 18.6922 0.378631 18.8856 0.410855C19.0789 0.426967 19.2803 0.435024 19.4898 0.435024C19.6992 0.435024 19.9006 0.426967 20.094 0.410855C20.2873 0.378631 20.4887 0.346407 20.6982 0.314182C21.0043 1.53869 21.3024 2.6907 21.5924 3.7702C21.8824 4.83359 22.1885 5.92115 22.5108 7.03288C22.8491 8.1285 23.2036 9.28856 23.5742 10.5131C23.9608 11.7215 24.3959 13.091 24.8792 14.6216H24.9276C25.0726 14.1866 25.274 13.5905 25.5318 12.8332C25.7896 12.0598 26.0715 11.2139 26.3776 10.2956C26.6838 9.36106 27.006 8.39434 27.3444 7.3954C27.6827 6.39646 27.9969 5.44585 28.2869 4.54358C28.5769 3.6252 28.8347 2.79543 29.0603 2.05428C29.2859 1.29701 29.447 0.716983 29.5436 0.314182C29.8659 0.394743 30.1317 0.435024 30.3412 0.435024C30.5506 0.435024 30.8165 0.394743 31.1387 0.314182C31.2515 0.749206 31.4207 1.34535 31.6463 2.10261C31.8879 2.85988 32.1538 3.70576 32.4438 4.64025C32.7338 5.55863 33.0399 6.5173 33.3622 7.51624C33.7005 8.51518 34.0228 9.47384 34.3289 10.3922C34.635 11.3106 34.9089 12.1404 35.1506 12.8815C35.4084 13.6227 35.6098 14.2027 35.7548 14.6216H35.8032C35.9159 14.2672 36.0851 13.7194 36.3107 12.9782C36.5524 12.2209 36.8182 11.3751 37.1082 10.4406C37.4143 9.48996 37.7205 8.49907 38.0266 7.4679C38.3488 6.42062 38.6469 5.42974 38.9208 4.49524C39.2108 3.54464 39.4606 2.69876 39.67 1.95761C39.8956 1.21645 40.0487 0.668646 40.1292 0.314182C40.2742 0.346407 40.4112 0.378631 40.5401 0.410855C40.6851 0.426967 40.8301 0.435024 40.9751 0.435024C41.1201 0.435024 41.2571 0.426967 41.3859 0.410855C41.531 0.378631 41.676 0.346407 41.821 0.314182C41.6599 0.684758 41.4262 1.29701 41.1201 2.15095C40.814 3.00488 40.4676 3.97966 40.0809 5.07527C39.7103 6.17089 39.3156 7.33095 38.8966 8.55546C38.4939 9.77997 38.0991 10.9481 37.7124 12.0598C37.3418 13.1554 37.0035 14.1463 36.6974 15.0325C36.4073 15.9025 36.1898 16.5309 36.0448 16.9176C35.787 16.8854 35.5131 16.8692 35.2231 16.8692C34.9331 16.8692 34.6592 16.8854 34.4014 16.9176C33.6764 14.678 32.9594 12.4304 32.2505 10.1747C31.5415 7.90293 30.7762 5.55863 29.9545 3.14184H29.9062C29.7773 3.51241 29.6 4.01188 29.3745 4.64025C29.165 5.25251 28.9233 5.94532 28.6494 6.7187C28.3916 7.49207 28.1097 8.32184 27.8036 9.208C27.4974 10.0942 27.1913 10.9884 26.8852 11.8906C26.579 12.7929 26.281 13.6791 25.991 14.5491C25.7009 15.4192 25.4351 16.2087 25.1934 16.9176C24.9356 16.8854 24.6537 16.8692 24.3475 16.8692C24.0414 16.8692 23.7594 16.8854 23.5017 16.9176Z" fill="white"/>
<path d="M43.7786 6.57369C43.7786 5.5103 43.7544 4.47107 43.7061 3.45602C43.6739 2.42485 43.6336 1.37757 43.5852 0.314182C43.7947 0.346407 43.9961 0.378631 44.1894 0.410855C44.3828 0.426967 44.5761 0.435024 44.7695 0.435024C44.9628 0.435024 45.1562 0.426967 45.3495 0.410855C45.5428 0.378631 45.7442 0.346407 45.9537 0.314182C45.9054 1.37757 45.857 2.42485 45.8087 3.45602C45.7765 4.47107 45.7603 5.5103 45.7603 6.57369C45.7603 8.6038 45.7684 10.3681 45.7845 11.8665C45.8006 13.3488 45.8167 14.678 45.8329 15.8542C46.9768 15.8542 48.0724 15.8461 49.1197 15.83C50.167 15.7978 51.2948 15.7011 52.5032 15.54C52.4227 15.83 52.3824 16.0717 52.3824 16.265C52.3824 16.4423 52.4227 16.6598 52.5032 16.9176C51.7621 16.8854 51.0209 16.8692 50.2798 16.8692C49.5386 16.8692 48.7975 16.8692 48.0563 16.8692C47.2829 16.8692 46.5337 16.8692 45.8087 16.8692C45.0998 16.8692 44.3586 16.8854 43.5852 16.9176C43.6336 15.9186 43.6739 14.9036 43.7061 13.8724C43.7544 12.8412 43.7786 11.794 43.7786 10.7306V6.57369Z" fill="white"/>
<path d="M54.6058 13.7757C54.7347 14.0658 54.9039 14.3638 55.1134 14.67C55.3389 14.96 55.6048 15.2258 55.9109 15.4675C56.2331 15.7092 56.6037 15.9106 57.0226 16.0717C57.4415 16.2167 57.9088 16.2892 58.4244 16.2892C58.9561 16.2892 59.4314 16.2006 59.8503 16.0234C60.2853 15.83 60.6478 15.5803 60.9378 15.2742C61.244 14.9519 61.4776 14.5813 61.6387 14.1624C61.7998 13.7274 61.8804 13.2682 61.8804 12.7849C61.8804 12.0437 61.687 11.4556 61.3004 11.0206C60.9298 10.5856 60.4625 10.2231 59.8986 9.93304C59.3347 9.64302 58.7224 9.37717 58.0619 9.13549C57.4174 8.89381 56.8132 8.59574 56.2493 8.24128C55.6853 7.8707 55.21 7.40345 54.8233 6.83954C54.4528 6.27562 54.2675 5.51835 54.2675 4.56775C54.2675 3.89104 54.3883 3.27879 54.63 2.73098C54.8717 2.16706 55.2181 1.6837 55.6692 1.2809C56.1365 0.878103 56.6923 0.563919 57.3368 0.338352C57.9813 0.112784 58.7063 0 59.5119 0C60.2853 0 60.9539 0.0966716 61.5179 0.290015C62.0818 0.467247 62.6054 0.749207 63.0888 1.13589C62.9438 1.4098 62.8229 1.69981 62.7263 2.00594C62.6296 2.31207 62.5329 2.69876 62.4363 3.166H62.1462C62.0657 2.94044 61.9529 2.69876 61.8079 2.44097C61.679 2.16706 61.4937 1.91733 61.252 1.69176C61.0265 1.46619 60.7525 1.2809 60.4303 1.13589C60.1081 0.974775 59.7214 0.894215 59.2703 0.894215C58.8191 0.894215 58.4002 0.966719 58.0135 1.11173C57.6429 1.25673 57.3126 1.46619 57.0226 1.74009C56.7487 1.99789 56.5312 2.31207 56.3701 2.68264C56.2251 3.05322 56.1526 3.45602 56.1526 3.89104C56.1526 4.64831 56.3379 5.24445 56.7084 5.67947C57.0951 6.1145 57.5704 6.48507 58.1344 6.7912C58.6983 7.08122 59.3025 7.34706 59.947 7.58874C60.6075 7.81431 61.2198 8.09627 61.7837 8.43462C62.3476 8.77297 62.8149 9.208 63.1855 9.73969C63.5721 10.2714 63.7655 10.9803 63.7655 11.8665C63.7655 12.6076 63.6285 13.3085 63.3546 13.9691C63.0968 14.6297 62.7102 15.2097 62.1946 15.7092C61.6951 16.1925 61.0748 16.5712 60.3336 16.8451C59.6086 17.1029 58.7788 17.2318 57.8443 17.2318C56.8454 17.2318 56.0317 17.1029 55.4034 16.8451C54.7911 16.5712 54.2755 16.265 53.8566 15.9267C54.0016 15.5561 54.0983 15.2258 54.1466 14.9358C54.2111 14.6297 54.2675 14.243 54.3158 13.7757H54.6058Z" fill="white"/>
<path d="M65.1431 8.65213C65.1431 7.28262 65.3606 6.06616 65.7956 5.00277C66.2467 3.92327 66.8671 3.01294 67.6565 2.27179C68.4621 1.53064 69.4208 0.966718 70.5325 0.580031C71.6442 0.193344 72.8607 0 74.1819 0C75.5192 0 76.7437 0.193344 77.8554 0.580031C78.9671 0.966718 79.9177 1.53064 80.7072 2.27179C81.5128 3.01294 82.1331 3.92327 82.5682 5.00277C83.0193 6.06616 83.2449 7.28262 83.2449 8.65213C83.2449 10.0217 83.0193 11.2462 82.5682 12.3257C82.1331 13.3891 81.5128 14.2913 80.7072 15.0325C79.9177 15.7736 78.9671 16.3295 77.8554 16.7001C76.7437 17.0545 75.5192 17.2318 74.1819 17.2318C72.8607 17.2318 71.6442 17.0545 70.5325 16.7001C69.4208 16.3295 68.4621 15.7736 67.6565 15.0325C66.8671 14.2913 66.2467 13.3891 65.7956 12.3257C65.3606 11.2462 65.1431 10.0217 65.1431 8.65213ZM80.8764 8.65213C80.8764 7.31484 80.7072 6.16283 80.3689 5.19611C80.0305 4.21328 79.5552 3.40768 78.943 2.77932C78.3468 2.13484 77.6379 1.65953 76.8162 1.35341C76.0106 1.04728 75.1325 0.894215 74.1819 0.894215C73.2474 0.894215 72.3693 1.04728 71.5476 1.35341C70.742 1.65953 70.0331 2.13484 69.4208 2.77932C68.8247 3.40768 68.3574 4.21328 68.0191 5.19611C67.6807 6.16283 67.5115 7.31484 67.5115 8.65213C67.5115 9.98943 67.6807 11.1495 68.0191 12.1323C68.3574 13.099 68.8247 13.9046 69.4208 14.5491C70.0331 15.1775 70.742 15.6447 71.5476 15.9509C72.3693 16.257 73.2474 16.4101 74.1819 16.4101C75.1325 16.4101 76.0106 16.257 76.8162 15.9509C77.6379 15.6447 78.3468 15.1775 78.943 14.5491C79.5552 13.9046 80.0305 13.099 80.3689 12.1323C80.7072 11.1495 80.8764 9.98943 80.8764 8.65213Z" fill="white"/>
<path d="M87.4503 0C88.562 2.2879 89.6818 4.51135 90.8096 6.67036C91.9536 8.82937 93.1459 11.0448 94.3865 13.3166C94.5476 13.0104 94.7812 12.5754 95.0874 12.0115C95.3935 11.4315 95.748 10.7709 96.1508 10.0297C96.5536 9.28856 96.9805 8.49101 97.4317 7.63708C97.8989 6.76703 98.3662 5.88893 98.8334 5.00277C99.3168 4.11661 99.7921 3.24656 100.259 2.39263C100.727 1.53869 101.162 0.741151 101.564 0H101.879C102.056 1.54675 102.217 3.04516 102.362 4.49524C102.523 5.92921 102.684 7.34706 102.845 8.74881C103.006 10.1344 103.168 11.512 103.329 12.8815C103.49 14.2349 103.667 15.5803 103.86 16.9176C103.667 16.8854 103.474 16.8692 103.28 16.8692C103.103 16.8692 102.918 16.8692 102.724 16.8692C102.531 16.8692 102.338 16.8692 102.144 16.8692C101.967 16.8692 101.782 16.8854 101.589 16.9176C101.411 14.7747 101.234 12.6962 101.057 10.6822C100.88 8.66825 100.662 6.61397 100.404 4.51941H100.356C99.2443 6.54952 98.1486 8.57157 97.0691 10.5856C96.0058 12.5835 94.9907 14.678 94.024 16.8692H93.8065C92.8397 14.8391 91.8247 12.809 90.7613 10.7789C89.714 8.73269 88.6587 6.64619 87.5953 4.51941H87.547C87.4342 5.51835 87.3053 6.60591 87.1603 7.78209C87.0314 8.94215 86.9105 10.0942 86.7978 11.2381C86.685 12.3659 86.5883 13.4374 86.5077 14.4524C86.4272 15.4514 86.3869 16.2731 86.3869 16.9176C86.1291 16.8854 85.8472 16.8692 85.541 16.8692C85.2349 16.8692 84.9529 16.8854 84.6951 16.9176C84.9046 15.6125 85.1221 14.2349 85.3477 12.7849C85.5732 11.3348 85.7908 9.87664 86.0002 8.41045C86.2097 6.94426 86.403 5.50224 86.5802 4.08439C86.7575 2.65042 86.9105 1.28896 87.0394 0H87.4503Z" fill="white"/>
<path d="M106.656 6.54952C106.656 5.48613 106.632 4.43885 106.583 3.40768C106.551 2.37652 106.511 1.34535 106.463 0.314182C107.188 0.346407 107.905 0.378631 108.613 0.410855C109.339 0.426967 110.064 0.435024 110.789 0.435024C111.514 0.435024 112.231 0.426967 112.94 0.410855C113.648 0.378631 114.365 0.346407 115.091 0.314182C115.042 0.555863 115.018 0.797543 115.018 1.03922C115.018 1.2809 115.042 1.52258 115.091 1.76426C114.575 1.73204 114.1 1.69981 113.665 1.66759C113.246 1.63537 112.795 1.60314 112.311 1.57092C111.844 1.53869 111.328 1.51453 110.764 1.49841C110.201 1.46619 109.524 1.45008 108.734 1.45008C108.718 1.96566 108.694 2.45708 108.662 2.92432C108.646 3.39157 108.638 3.92327 108.638 4.51941C108.638 5.14778 108.638 5.76003 108.638 6.35618C108.654 6.95232 108.662 7.40345 108.662 7.70958C109.371 7.70958 110.007 7.70153 110.571 7.68541C111.135 7.6693 111.651 7.65319 112.118 7.63708C112.585 7.60486 113.012 7.58069 113.399 7.56458C113.802 7.53235 114.18 7.50013 114.535 7.4679C114.486 7.70958 114.462 7.95932 114.462 8.21711C114.462 8.45879 114.486 8.70047 114.535 8.94215C114.116 8.89381 113.624 8.85353 113.06 8.82131C112.513 8.78909 111.957 8.77297 111.393 8.77297C110.845 8.75686 110.321 8.74881 109.822 8.74881C109.339 8.73269 108.952 8.72464 108.662 8.72464C108.662 8.86965 108.654 9.03077 108.638 9.208C108.638 9.36912 108.638 9.57857 108.638 9.83636V12.229C108.638 13.1474 108.638 13.9046 108.638 14.5008C108.654 15.0969 108.67 15.5481 108.686 15.8542C109.218 15.8542 109.782 15.8542 110.378 15.8542C110.99 15.8542 111.586 15.8461 112.166 15.83C112.762 15.7978 113.318 15.7656 113.834 15.7333C114.365 15.685 114.825 15.6206 115.211 15.54C115.179 15.6528 115.155 15.7817 115.139 15.9267C115.139 16.0556 115.139 16.1764 115.139 16.2892C115.139 16.547 115.163 16.7565 115.211 16.9176C114.486 16.8854 113.761 16.8692 113.036 16.8692C112.327 16.8692 111.602 16.8692 110.861 16.8692C110.12 16.8692 109.387 16.8692 108.662 16.8692C107.937 16.8692 107.204 16.8854 106.463 16.9176C106.511 15.8864 106.551 14.8633 106.583 13.8482C106.632 12.8171 106.656 11.7698 106.656 10.7064V6.54952Z" fill="white"/>
<path d="M123.485 13.7757C123.613 14.0658 123.783 14.3638 123.992 14.67C124.218 14.96 124.483 15.2258 124.79 15.4675C125.112 15.7092 125.482 15.9106 125.901 16.0717C126.32 16.2167 126.787 16.2892 127.303 16.2892C127.835 16.2892 128.31 16.2006 128.729 16.0234C129.164 15.83 129.527 15.5803 129.817 15.2742C130.123 14.9519 130.356 14.5813 130.517 14.1624C130.679 13.7274 130.759 13.2682 130.759 12.7849C130.759 12.0437 130.566 11.4556 130.179 11.0206C129.808 10.5856 129.341 10.2231 128.777 9.93304C128.213 9.64302 127.601 9.37717 126.941 9.13549C126.296 8.89381 125.692 8.59574 125.128 8.24128C124.564 7.8707 124.089 7.40345 123.702 6.83954C123.331 6.27562 123.146 5.51835 123.146 4.56775C123.146 3.89104 123.267 3.27879 123.509 2.73098C123.75 2.16706 124.097 1.6837 124.548 1.2809C125.015 0.878103 125.571 0.563919 126.216 0.338352C126.86 0.112784 127.585 0 128.391 0C129.164 0 129.833 0.0966716 130.397 0.290015C130.96 0.467247 131.484 0.749207 131.967 1.13589C131.822 1.4098 131.702 1.69981 131.605 2.00594C131.508 2.31207 131.412 2.69876 131.315 3.166H131.025C130.944 2.94044 130.832 2.69876 130.687 2.44097C130.558 2.16706 130.372 1.91733 130.131 1.69176C129.905 1.46619 129.631 1.2809 129.309 1.13589C128.987 0.974775 128.6 0.894215 128.149 0.894215C127.698 0.894215 127.279 0.966719 126.892 1.11173C126.522 1.25673 126.191 1.46619 125.901 1.74009C125.627 1.99789 125.41 2.31207 125.249 2.68264C125.104 3.05322 125.031 3.45602 125.031 3.89104C125.031 4.64831 125.217 5.24445 125.587 5.67947C125.974 6.1145 126.449 6.48507 127.013 6.7912C127.577 7.08122 128.181 7.34706 128.826 7.58874C129.486 7.81431 130.098 8.09627 130.662 8.43462C131.226 8.77297 131.694 9.208 132.064 9.73969C132.451 10.2714 132.644 10.9803 132.644 11.8665C132.644 12.6076 132.507 13.3085 132.233 13.9691C131.976 14.6297 131.589 15.2097 131.073 15.7092C130.574 16.1925 129.953 16.5712 129.212 16.8451C128.487 17.1029 127.658 17.2318 126.723 17.2318C125.724 17.2318 124.91 17.1029 124.282 16.8451C123.67 16.5712 123.154 16.265 122.735 15.9267C122.88 15.5561 122.977 15.2258 123.025 14.9358C123.09 14.6297 123.146 14.243 123.195 13.7757H123.485Z" fill="white"/>
<path d="M138.735 6.57369C138.735 4.89804 138.71 3.23045 138.662 1.57092C138.243 1.57092 137.8 1.57897 137.333 1.59509C136.882 1.59509 136.422 1.6112 135.955 1.64342C135.504 1.65953 135.061 1.6837 134.626 1.71593C134.207 1.74815 133.828 1.78843 133.49 1.83677C133.571 1.54675 133.611 1.28896 133.611 1.06339C133.611 0.886159 133.571 0.636423 133.49 0.314182C134.553 0.346407 135.593 0.378631 136.608 0.410855C137.623 0.426967 138.662 0.435024 139.725 0.435024C140.789 0.435024 141.828 0.426967 142.843 0.410855C143.858 0.378631 144.897 0.346407 145.961 0.314182C145.88 0.636423 145.84 0.894214 145.84 1.08756C145.84 1.29701 145.88 1.54675 145.961 1.83677C145.622 1.78843 145.236 1.74815 144.801 1.71593C144.382 1.6837 143.939 1.65953 143.471 1.64342C143.02 1.6112 142.561 1.59509 142.094 1.59509C141.643 1.57897 141.208 1.57092 140.789 1.57092C140.74 3.23045 140.716 4.89804 140.716 6.57369V10.7306C140.716 11.794 140.732 12.8412 140.765 13.8724C140.813 14.9036 140.861 15.9186 140.91 16.9176C140.539 16.8854 140.144 16.8692 139.725 16.8692C139.307 16.8692 138.912 16.8854 138.541 16.9176C138.59 15.9186 138.63 14.9036 138.662 13.8724C138.71 12.8412 138.735 11.794 138.735 10.7306V6.57369Z" fill="white"/>
<path d="M160.671 8.16877C160.671 5.88087 160.663 4.11661 160.647 2.87599C160.631 1.63537 160.59 0.781431 160.526 0.314182C160.703 0.346407 160.872 0.378631 161.033 0.410855C161.195 0.426967 161.356 0.435024 161.517 0.435024C161.726 0.435024 161.968 0.394743 162.242 0.314182C162.194 0.878102 162.145 1.55481 162.097 2.34429C162.049 3.11767 162.008 3.95549 161.976 4.85776C161.944 5.74392 161.912 6.6623 161.879 7.61291C161.847 8.54741 161.823 9.45773 161.807 10.3439C161.791 11.4234 161.622 12.3901 161.299 13.244C160.993 14.098 160.55 14.823 159.97 15.4192C159.39 16.0153 158.673 16.4664 157.819 16.7726C156.981 17.0787 156.015 17.2318 154.919 17.2318C152.502 17.2318 150.746 16.684 149.65 15.5883C148.555 14.4927 148.007 12.7607 148.007 10.3922C148.007 9.63496 148.023 8.96632 148.055 8.38629C148.104 7.79014 148.128 7.18594 148.128 6.57369C148.128 5.22028 148.112 4.01994 148.079 2.97266C148.047 1.92538 148.015 1.03922 147.983 0.314182C148.176 0.346407 148.386 0.378631 148.611 0.410855C148.837 0.426967 149.046 0.435024 149.239 0.435024C149.417 0.435024 149.586 0.426967 149.747 0.410855C149.924 0.378631 150.101 0.346407 150.279 0.314182C150.246 0.668646 150.214 1.13589 150.182 1.71593C150.15 2.27985 150.118 2.92432 150.085 3.64936C150.053 4.3744 150.029 5.15583 150.013 5.99366C149.997 6.83148 149.989 7.70153 149.989 8.6038C149.989 9.15161 149.997 9.72358 150.013 10.3197C150.029 10.8998 150.085 11.4717 150.182 12.0357C150.279 12.5835 150.432 13.1152 150.641 13.6307C150.867 14.1302 151.181 14.5733 151.584 14.96C151.987 15.3306 152.494 15.6286 153.106 15.8542C153.719 16.0636 154.476 16.1684 155.378 16.1684C156.264 16.1684 157.005 16.0395 157.602 15.7817C158.214 15.5239 158.713 15.1855 159.1 14.7666C159.487 14.3477 159.785 13.8644 159.994 13.3166C160.22 12.7687 160.381 12.1968 160.478 11.6006C160.574 11.0045 160.631 10.4083 160.647 9.8122C160.663 9.21605 160.671 8.66825 160.671 8.16877Z" fill="white"/>
<path d="M166.165 6.57369C166.165 5.5103 166.141 4.47107 166.092 3.45602C166.06 2.42485 166.02 1.37757 165.971 0.314182C166.584 0.346407 167.188 0.378631 167.784 0.410855C168.396 0.426967 169.009 0.435024 169.621 0.435024C170.233 0.435024 170.837 0.418911 171.433 0.386687C172.046 0.338351 172.658 0.314182 173.27 0.314182C174.688 0.314182 175.896 0.49947 176.895 0.870046C177.91 1.24062 178.74 1.77232 179.385 2.46513C180.029 3.14184 180.496 3.97966 180.786 4.9786C181.093 5.96143 181.246 7.07316 181.246 8.31378C181.246 9.92498 180.964 11.2864 180.4 12.3982C179.852 13.4938 179.143 14.3799 178.273 15.0566C177.419 15.7333 176.468 16.2167 175.421 16.5067C174.39 16.7806 173.399 16.9176 172.448 16.9176C171.901 16.9176 171.361 16.9095 170.829 16.8934C170.298 16.8773 169.758 16.8692 169.21 16.8692C168.662 16.8692 168.122 16.8692 167.591 16.8692C167.059 16.8692 166.519 16.8854 165.971 16.9176C166.02 15.9186 166.06 14.9036 166.092 13.8724C166.141 12.8412 166.165 11.794 166.165 10.7306V6.57369ZM168.147 10.7306C168.147 12.4707 168.195 14.1785 168.292 15.8542C168.63 15.9347 169.089 15.9992 169.669 16.0475C170.249 16.0798 170.845 16.0959 171.458 16.0959C172.344 16.0959 173.23 15.9911 174.116 15.7817C175.002 15.5722 175.792 15.1775 176.485 14.5975C177.193 14.0174 177.765 13.2279 178.2 12.229C178.652 11.2139 178.877 9.90887 178.877 8.31378C178.877 6.91204 178.7 5.76003 178.345 4.85776C178.007 3.95549 177.532 3.24656 176.92 2.73098C176.323 2.19929 175.606 1.83677 174.769 1.64342C173.931 1.43397 173.012 1.32924 172.013 1.32924C171.288 1.32924 170.612 1.35341 169.983 1.40174C169.355 1.45008 168.791 1.50647 168.292 1.57092C168.243 2.34429 168.203 3.15795 168.171 4.01188C168.155 4.84971 168.147 5.70364 168.147 6.57369V10.7306Z" fill="white"/>
<path d="M184.25 6.57369C184.25 5.5103 184.226 4.47107 184.178 3.45602C184.145 2.42485 184.105 1.37757 184.057 0.314182C184.266 0.346407 184.468 0.378631 184.661 0.410855C184.854 0.426967 185.048 0.435024 185.241 0.435024C185.434 0.435024 185.628 0.426967 185.821 0.410855C186.014 0.378631 186.216 0.346407 186.425 0.314182C186.377 1.37757 186.329 2.42485 186.28 3.45602C186.248 4.47107 186.232 5.5103 186.232 6.57369V10.7306C186.232 11.794 186.248 12.8412 186.28 13.8724C186.329 14.9036 186.377 15.9186 186.425 16.9176C186.055 16.8854 185.66 16.8692 185.241 16.8692C184.822 16.8692 184.427 16.8854 184.057 16.9176C184.105 15.9186 184.145 14.9036 184.178 13.8724C184.226 12.8412 184.25 11.794 184.25 10.7306V6.57369Z" fill="white"/>
<path d="M188.898 8.65213C188.898 7.28262 189.116 6.06616 189.551 5.00277C190.002 3.92327 190.622 3.01294 191.412 2.27179C192.217 1.53064 193.176 0.966718 194.288 0.580031C195.399 0.193344 196.616 0 197.937 0C199.274 0 200.499 0.193344 201.611 0.580031C202.722 0.966718 203.673 1.53064 204.462 2.27179C205.268 3.01294 205.888 3.92327 206.323 5.00277C206.774 6.06616 207 7.28262 207 8.65213C207 10.0217 206.774 11.2462 206.323 12.3257C205.888 13.3891 205.268 14.2913 204.462 15.0325C203.673 15.7736 202.722 16.3295 201.611 16.7001C200.499 17.0545 199.274 17.2318 197.937 17.2318C196.616 17.2318 195.399 17.0545 194.288 16.7001C193.176 16.3295 192.217 15.7736 191.412 15.0325C190.622 14.2913 190.002 13.3891 189.551 12.3257C189.116 11.2462 188.898 10.0217 188.898 8.65213ZM204.632 8.65213C204.632 7.31484 204.462 6.16283 204.124 5.19611C203.786 4.21328 203.31 3.40768 202.698 2.77932C202.102 2.13484 201.393 1.65953 200.571 1.35341C199.766 1.04728 198.888 0.894215 197.937 0.894215C197.003 0.894215 196.124 1.04728 195.303 1.35341C194.497 1.65953 193.788 2.13484 193.176 2.77932C192.58 3.40768 192.113 4.21328 191.774 5.19611C191.436 6.16283 191.267 7.31484 191.267 8.65213C191.267 9.98943 191.436 11.1495 191.774 12.1323C192.113 13.099 192.58 13.9046 193.176 14.5491C193.788 15.1775 194.497 15.6447 195.303 15.9509C196.124 16.257 197.003 16.4101 197.937 16.4101C198.888 16.4101 199.766 16.257 200.571 15.9509C201.393 15.6447 202.102 15.1775 202.698 14.5491C203.31 13.9046 203.786 13.099 204.124 12.1323C204.462 11.1495 204.632 9.98943 204.632 8.65213Z" fill="white"/>
</g>
</g>
</svg>
