<svg width="183" height="66" viewBox="0 0 183 66" fill="none" xmlns="http://www.w3.org/2000/svg">
<g id="OWLSOME STUDIO">
<path d="M0 13.7933C0 11.61 0.345492 9.67075 1.03648 7.97548C1.75305 6.25452 2.73835 4.80327 3.99236 3.62172C5.27196 2.44016 6.79468 1.54116 8.56053 0.924693C10.3264 0.308231 12.2586 0 14.3571 0C16.4813 0 18.4263 0.308231 20.1921 0.924693C21.958 1.54116 23.4679 2.44016 24.7219 3.62172C26.0015 4.80327 26.9868 6.25452 27.6778 7.97548C28.3944 9.67075 28.7526 11.61 28.7526 13.7933C28.7526 15.9766 28.3944 17.9288 27.6778 19.6497C26.9868 21.345 26.0015 22.7834 24.7219 23.965C23.4679 25.1465 21.958 26.0327 20.1921 26.6235C18.4263 27.1886 16.4813 27.4711 14.3571 27.4711C12.2586 27.4711 10.3264 27.1886 8.56053 26.6235C6.79468 26.0327 5.27196 25.1465 3.99236 23.965C2.73835 22.7834 1.75305 21.345 1.03648 19.6497C0.345492 17.9288 0 15.9766 0 13.7933ZM24.9906 13.7933C24.9906 11.6614 24.7219 9.82487 24.1845 8.28371C23.647 6.71687 22.8921 5.43257 21.9196 4.43082C20.9727 3.40339 19.8466 2.64565 18.5414 2.15762C17.2618 1.66959 15.8671 1.42557 14.3571 1.42557C12.8728 1.42557 11.478 1.66959 10.1728 2.15762C8.89323 2.64565 7.76718 3.40339 6.79468 4.43082C5.84778 5.43257 5.10561 6.71687 4.56818 8.28371C4.03074 9.82487 3.76203 11.6614 3.76203 13.7933C3.76203 15.9253 4.03074 17.7747 4.56818 19.3415C5.10561 20.8827 5.84778 22.167 6.79468 23.1944C7.76718 24.1961 8.89323 24.941 10.1728 25.4291C11.478 25.9171 12.8728 26.1611 14.3571 26.1611C15.8671 26.1611 17.2618 25.9171 18.5414 25.4291C19.8466 24.941 20.9727 24.1961 21.9196 23.1944C22.8921 22.167 23.647 20.8827 24.1845 19.3415C24.7219 17.7747 24.9906 15.9253 24.9906 13.7933Z" fill="white"/>
<path d="M37.3297 26.9702C37.1249 26.3281 36.805 25.3135 36.37 23.9264C35.9605 22.5394 35.487 20.9726 34.9496 19.2259C34.4122 17.4793 33.8492 15.6556 33.2605 13.7548C32.6719 11.8284 32.1089 10.0047 31.5715 8.28371C31.034 6.53707 30.535 4.97023 30.0743 3.58319C29.6393 2.19615 29.2938 1.16871 29.0379 0.500874C29.3706 0.552247 29.6905 0.603619 29.9976 0.65499C30.3047 0.680677 30.6246 0.69352 30.9573 0.69352C31.29 0.69352 31.6099 0.680677 31.917 0.65499C32.2241 0.603619 32.544 0.552247 32.8767 0.500874C33.3629 2.45301 33.8364 4.28955 34.297 6.01051C34.7577 7.70578 35.2439 9.43958 35.7558 11.2119C36.2932 12.9586 36.8562 14.8079 37.4448 16.7601C38.059 18.6865 38.75 20.8698 39.5178 23.31H39.5946C39.8249 22.6165 40.1448 21.6661 40.5543 20.4588C40.9637 19.2259 41.4116 17.8774 41.8979 16.4133C42.3841 14.9235 42.8959 13.3824 43.4334 11.7898C43.9708 10.1973 44.4698 8.68184 44.9305 7.24343C45.3912 5.77933 45.8006 4.45651 46.1589 3.27496C46.5172 2.06772 46.7731 1.14302 46.9267 0.500874C47.4385 0.629305 47.8608 0.69352 48.1935 0.69352C48.5262 0.69352 48.9485 0.629305 49.4603 0.500874C49.6394 1.19439 49.9082 2.14477 50.2664 3.35201C50.6503 4.55925 51.0726 5.90776 51.5332 7.39755C51.9939 8.86165 52.4802 10.39 52.992 11.9825C53.5294 13.575 54.0413 15.1033 54.5275 16.5674C55.0138 18.0315 55.4488 19.3543 55.8327 20.5359C56.2422 21.7175 56.5621 22.6421 56.7924 23.31H56.8692C57.0483 22.7449 57.317 21.8716 57.6753 20.69C58.0592 19.4828 58.4815 18.1343 58.9421 16.6445C59.4284 15.129 59.9146 13.5493 60.4009 11.9054C60.9127 10.2358 61.3862 8.65616 61.8212 7.16637C62.2819 5.6509 62.6786 4.30239 63.0113 3.12084C63.3696 1.93929 63.6127 1.06596 63.7406 0.500874C63.971 0.552247 64.1885 0.603619 64.3932 0.65499C64.6236 0.680677 64.8539 0.69352 65.0842 0.69352C65.3146 0.69352 65.5321 0.680677 65.7368 0.65499C65.9672 0.603619 66.1975 0.552247 66.4278 0.500874C66.1719 1.09165 65.8008 2.06772 65.3146 3.42907C64.8283 4.79043 64.2781 6.34442 63.6639 8.09107C63.0753 9.83771 62.4482 11.6871 61.7829 13.6392C61.1431 15.5914 60.5161 17.4536 59.9018 19.2259C59.3132 20.9726 58.7758 22.5522 58.2895 23.965C57.8289 25.352 57.4834 26.3538 57.2531 26.9702C56.8436 26.9189 56.4085 26.8932 55.9479 26.8932C55.4872 26.8932 55.0522 26.9189 54.6427 26.9702C53.491 23.3999 52.3522 19.8167 51.2261 16.2207C50.1001 12.5989 48.8845 8.86165 47.5793 5.00876H47.5025C47.2978 5.59953 47.0163 6.3958 46.658 7.39755C46.3253 8.37361 45.9414 9.47811 45.5063 10.711C45.0969 11.944 44.649 13.2668 44.1627 14.6795C43.6765 16.0922 43.1902 17.5178 42.704 18.9562C42.2178 20.3946 41.7443 21.8074 41.2836 23.1944C40.823 24.5814 40.4007 25.84 40.0168 26.9702C39.6074 26.9189 39.1595 26.8932 38.6733 26.8932C38.187 26.8932 37.7391 26.9189 37.3297 26.9702Z" fill="white"/>
<path d="M69.5372 10.4799C69.5372 8.78459 69.4988 7.12785 69.4221 5.50963C69.3709 3.86573 69.3069 2.19615 69.2301 0.500874C69.5628 0.552247 69.8827 0.603619 70.1898 0.65499C70.4969 0.680677 70.804 0.69352 71.1111 0.69352C71.4183 0.69352 71.7254 0.680677 72.0325 0.65499C72.3396 0.603619 72.6595 0.552247 72.9922 0.500874C72.9154 2.19615 72.8386 3.86573 72.7618 5.50963C72.7107 7.12785 72.6851 8.78459 72.6851 10.4799C72.6851 13.7163 72.6979 16.5289 72.7234 18.9177C72.749 21.2808 72.7746 23.3999 72.8002 25.275C74.6173 25.275 76.3575 25.2621 78.021 25.2364C79.6845 25.1851 81.4759 25.0309 83.3953 24.7741C83.2674 25.2364 83.2034 25.6217 83.2034 25.9299C83.2034 26.2125 83.2674 26.5593 83.3953 26.9702C82.2181 26.9189 81.0409 26.8932 79.8636 26.8932C78.6864 26.8932 77.5092 26.8932 76.3319 26.8932C75.1035 26.8932 73.9135 26.8932 72.7618 26.8932C71.6358 26.8932 70.4585 26.9189 69.2301 26.9702C69.3069 25.3777 69.3709 23.7595 69.4221 22.1156C69.4988 20.4717 69.5372 18.8021 69.5372 17.1068V10.4799Z" fill="white"/>
<path d="M86.7351 21.9615C86.9398 22.4238 87.2085 22.899 87.5412 23.387C87.8995 23.8494 88.3218 24.2732 88.808 24.6585C89.3199 25.0438 89.9085 25.3649 90.5739 25.6217C91.2393 25.8529 91.9815 25.9685 92.8004 25.9685C93.6449 25.9685 94.3999 25.8272 95.0653 25.5447C95.7563 25.2364 96.3321 24.8383 96.7927 24.3503C97.279 23.8365 97.6501 23.2458 97.906 22.5779C98.1619 21.8844 98.2899 21.1524 98.2899 20.3818C98.2899 19.2002 97.9828 18.2627 97.3686 17.5692C96.78 16.8757 96.0378 16.2977 95.1421 15.8354C94.2463 15.373 93.2738 14.9492 92.2246 14.5639C91.2009 14.1786 90.2412 13.7034 89.3455 13.1384C88.4498 12.5476 87.6948 11.8027 87.0806 10.9037C86.492 10.0047 86.1976 8.79743 86.1976 7.28196C86.1976 6.20315 86.3896 5.22709 86.7735 4.35376C87.1573 3.45476 87.7076 2.68418 88.4242 2.04203C89.1663 1.39988 90.0492 0.899008 91.0729 0.539405C92.0966 0.179802 93.2483 0 94.5279 0C95.7563 0 96.8183 0.154115 97.7141 0.462345C98.6098 0.744892 99.4415 1.1944 100.209 1.81086C99.979 2.24752 99.787 2.70987 99.6335 3.1979C99.4799 3.68593 99.3264 4.30239 99.1728 5.04729H98.7122C98.5842 4.68768 98.405 4.30239 98.1747 3.89142C97.97 3.45476 97.6757 3.05663 97.2918 2.69702C96.9335 2.33742 96.4984 2.04203 95.9866 1.81086C95.4748 1.554 94.8605 1.42557 94.144 1.42557C93.4274 1.42557 92.762 1.54116 92.1478 1.77233C91.5592 2.0035 91.0345 2.33742 90.5739 2.77408C90.1388 3.18506 89.7933 3.68593 89.5374 4.27671C89.3071 4.86748 89.1919 5.50963 89.1919 6.20315C89.1919 7.41039 89.4862 8.36077 90.0748 9.05429C90.689 9.74781 91.444 10.3386 92.3397 10.8266C93.2355 11.289 94.1952 11.7128 95.2188 12.0981C96.2681 12.4577 97.2406 12.9072 98.1363 13.4466C99.0321 13.986 99.7742 14.6795 100.363 15.5271C100.977 16.3748 101.284 17.505 101.284 18.9177C101.284 20.0992 101.067 21.2166 100.632 22.2697C100.222 23.3228 99.6079 24.2475 98.7889 25.0438C97.9956 25.8144 97.0103 26.418 95.8331 26.8546C94.6814 27.2656 93.3634 27.4711 91.8791 27.4711C90.2924 27.4711 89 27.2656 88.0019 26.8546C87.0294 26.418 86.2104 25.9299 85.5451 25.3905C85.7754 24.7998 85.9289 24.2732 86.0057 23.8109C86.1081 23.3228 86.1976 22.7064 86.2744 21.9615H86.7351Z" fill="white"/>
<path d="M103.472 13.7933C103.472 11.61 103.818 9.67075 104.509 7.97548C105.225 6.25452 106.211 4.80327 107.465 3.62172C108.744 2.44016 110.267 1.54116 112.033 0.924693C113.799 0.308231 115.731 0 117.829 0C119.954 0 121.899 0.308231 123.664 0.924693C125.43 1.54116 126.94 2.44016 128.194 3.62172C129.474 4.80327 130.459 6.25452 131.15 7.97548C131.867 9.67075 132.225 11.61 132.225 13.7933C132.225 15.9766 131.867 17.9288 131.15 19.6497C130.459 21.345 129.474 22.7834 128.194 23.965C126.94 25.1465 125.43 26.0327 123.664 26.6235C121.899 27.1886 119.954 27.4711 117.829 27.4711C115.731 27.4711 113.799 27.1886 112.033 26.6235C110.267 26.0327 108.744 25.1465 107.465 23.965C106.211 22.7834 105.225 21.345 104.509 19.6497C103.818 17.9288 103.472 15.9766 103.472 13.7933ZM128.463 13.7933C128.463 11.6614 128.194 9.82487 127.657 8.28371C127.119 6.71687 126.364 5.43257 125.392 4.43082C124.445 3.40339 123.319 2.64565 122.014 2.15762C120.734 1.66959 119.339 1.42557 117.829 1.42557C116.345 1.42557 114.95 1.66959 113.645 2.15762C112.365 2.64565 111.239 3.40339 110.267 4.43082C109.32 5.43257 108.578 6.71687 108.04 8.28371C107.503 9.82487 107.234 11.6614 107.234 13.7933C107.234 15.9253 107.503 17.7747 108.04 19.3415C108.578 20.8827 109.32 22.167 110.267 23.1944C111.239 24.1961 112.365 24.941 113.645 25.4291C114.95 25.9171 116.345 26.1611 117.829 26.1611C119.339 26.1611 120.734 25.9171 122.014 25.4291C123.319 24.941 124.445 24.1961 125.392 23.1944C126.364 22.167 127.119 20.8827 127.657 19.3415C128.194 17.7747 128.463 15.9253 128.463 13.7933Z" fill="white"/>
<path d="M138.905 0C140.671 3.6474 142.449 7.19206 144.241 10.634C146.058 14.0759 147.952 17.6077 149.922 21.2294C150.178 20.7414 150.549 20.0479 151.035 19.1489C151.522 18.2242 152.085 17.171 152.724 15.9895C153.364 14.8079 154.042 13.5365 154.759 12.1751C155.501 10.7881 156.243 9.38821 156.985 7.97548C157.753 6.56276 158.508 5.17572 159.25 3.81436C159.993 2.45301 160.684 1.18155 161.323 0H161.822C162.104 2.46585 162.36 4.85464 162.59 7.16637C162.846 9.45242 163.102 11.7128 163.358 13.9475C163.614 16.1565 163.87 18.3526 164.126 20.5359C164.382 22.6935 164.663 24.8383 164.97 26.9702C164.663 26.9189 164.356 26.8932 164.049 26.8932C163.767 26.8932 163.473 26.8932 163.166 26.8932C162.859 26.8932 162.552 26.8932 162.245 26.8932C161.963 26.8932 161.669 26.9189 161.362 26.9702C161.08 23.554 160.799 20.2405 160.517 17.0298C160.236 13.819 159.89 10.5441 159.481 7.2049H159.404C157.638 10.4413 155.898 13.6649 154.183 16.8757C152.494 20.0607 150.882 23.3999 149.346 26.8932H149.001C147.465 23.6567 145.853 20.4203 144.164 17.1839C142.5 13.9218 140.824 10.5954 139.135 7.2049H139.058C138.879 8.79743 138.674 10.5312 138.444 12.4063C138.239 14.2557 138.047 16.0922 137.868 17.9159C137.689 19.714 137.536 21.4221 137.408 23.0403C137.28 24.6328 137.216 25.9428 137.216 26.9702C136.806 26.9189 136.358 26.8932 135.872 26.8932C135.386 26.8932 134.938 26.9189 134.528 26.9702C134.861 24.8897 135.207 22.6935 135.565 20.3818C135.923 18.0701 136.269 15.7455 136.601 13.4081C136.934 11.0706 137.241 8.77175 137.523 6.51138C137.804 4.22534 138.047 2.05487 138.252 0H138.905Z" fill="white"/>
<path d="M169.411 10.4413C169.411 8.74606 169.372 7.07647 169.295 5.43257C169.244 3.78867 169.18 2.14477 169.104 0.500874C170.255 0.552247 171.394 0.603619 172.52 0.65499C173.672 0.680677 174.823 0.69352 175.975 0.69352C177.127 0.69352 178.265 0.680677 179.392 0.65499C180.518 0.603619 181.656 0.552247 182.808 0.500874C182.731 0.886164 182.693 1.27145 182.693 1.65674C182.693 2.04203 182.731 2.42732 182.808 2.81261C181.989 2.76124 181.234 2.70987 180.543 2.65849C179.878 2.60712 179.161 2.55575 178.393 2.50438C177.651 2.45301 176.832 2.41448 175.937 2.38879C175.041 2.33742 173.966 2.31173 172.712 2.31173C172.686 3.13368 172.648 3.9171 172.597 4.662C172.571 5.40689 172.558 6.25452 172.558 7.2049C172.558 8.20665 172.558 9.18272 172.558 10.1331C172.584 11.0835 172.597 11.8027 172.597 12.2907C173.723 12.2907 174.734 12.2779 175.629 12.2522C176.525 12.2265 177.344 12.2008 178.086 12.1751C178.828 12.1238 179.507 12.0852 180.121 12.0595C180.761 12.0082 181.362 11.9568 181.925 11.9054C181.848 12.2907 181.81 12.6889 181.81 13.0998C181.81 13.4851 181.848 13.8704 181.925 14.2557C181.26 14.1786 180.479 14.1144 179.583 14.063C178.713 14.0117 177.83 13.986 176.935 13.986C176.065 13.9603 175.233 13.9475 174.439 13.9475C173.672 13.9218 173.057 13.9089 172.597 13.9089C172.597 14.1401 172.584 14.397 172.558 14.6795C172.558 14.9364 172.558 15.2703 172.558 15.6813V19.4956C172.558 20.9597 172.558 22.167 172.558 23.1173C172.584 24.0677 172.61 24.7869 172.635 25.275C173.48 25.275 174.375 25.275 175.322 25.275C176.295 25.275 177.242 25.2621 178.163 25.2364C179.11 25.1851 179.993 25.1337 180.812 25.0823C181.656 25.0053 182.386 24.9025 183 24.7741C182.949 24.9539 182.91 25.1594 182.885 25.3905C182.885 25.596 182.885 25.7887 182.885 25.9685C182.885 26.3795 182.923 26.7134 183 26.9702C181.848 26.9189 180.697 26.8932 179.545 26.8932C178.419 26.8932 177.267 26.8932 176.09 26.8932C174.913 26.8932 173.748 26.8932 172.597 26.8932C171.445 26.8932 170.281 26.9189 169.104 26.9702C169.18 25.3263 169.244 23.6953 169.295 22.0771C169.372 20.4332 169.411 18.7636 169.411 17.0683V10.4413Z" fill="white"/>
<path d="M25.9403 60.4904C26.145 60.9527 26.4137 61.4279 26.7464 61.9159C27.1047 62.3783 27.527 62.8021 28.0132 63.1874C28.5251 63.5727 29.1137 63.8938 29.7791 64.1506C30.4445 64.3818 31.1866 64.4974 32.0056 64.4974C32.8501 64.4974 33.6051 64.3561 34.2705 64.0736C34.9615 63.7653 35.5373 63.3672 35.9979 62.8792C36.4842 62.3654 36.8553 61.7747 37.1112 61.1068C37.3671 60.4133 37.4951 59.6813 37.4951 58.9107C37.4951 57.7291 37.188 56.7916 36.5738 56.0981C35.9851 55.4046 35.243 54.8266 34.3473 54.3643C33.4515 53.9019 32.479 53.4781 31.4298 53.0928C30.4061 52.7075 29.4464 52.2323 28.5507 51.6672C27.6549 51.0765 26.9 50.3316 26.2858 49.4326C25.6971 48.5336 25.4028 47.3263 25.4028 45.8109C25.4028 44.732 25.5948 43.756 25.9787 42.8827C26.3625 41.9837 26.9128 41.2131 27.6293 40.5709C28.3715 39.9288 29.2544 39.4279 30.2781 39.0683C31.3018 38.7087 32.4534 38.5289 33.733 38.5289C34.9615 38.5289 36.0235 38.683 36.9193 38.9912C37.815 39.2738 38.6467 39.7233 39.4145 40.3398C39.1841 40.7764 38.9922 41.2388 38.8387 41.7268C38.6851 42.2148 38.5316 42.8313 38.378 43.5762H37.9173C37.7894 43.2166 37.6102 42.8313 37.3799 42.4203C37.1752 41.9837 36.8809 41.5855 36.497 41.2259C36.1387 40.8663 35.7036 40.5709 35.1918 40.3398C34.68 40.0829 34.0657 39.9545 33.3492 39.9545C32.6326 39.9545 31.9672 40.0701 31.353 40.3012C30.7644 40.5324 30.2397 40.8663 29.7791 41.303C29.344 41.714 28.9985 42.2148 28.7426 42.8056C28.5123 43.3964 28.3971 44.0385 28.3971 44.7321C28.3971 45.9393 28.6914 46.8897 29.28 47.5832C29.8942 48.2767 30.6492 48.8675 31.5449 49.3555C32.4406 49.8179 33.4003 50.2417 34.424 50.627C35.4733 50.9866 36.4458 51.4361 37.3415 51.9755C38.2372 52.5149 38.9794 53.2084 39.568 54.056C40.1822 54.9037 40.4893 56.0339 40.4893 57.4466C40.4893 58.6281 40.2718 59.7455 39.8367 60.7986C39.4273 61.8517 38.8131 62.7764 37.9941 63.5727C37.2008 64.3433 36.2155 64.9469 35.0382 65.3835C33.8866 65.7945 32.5686 66 31.0843 66C29.4976 66 28.2052 65.7945 27.2071 65.3835C26.2346 64.9469 25.4156 64.4588 24.7502 63.9194C24.9806 63.3287 25.1341 62.8021 25.2109 62.3398C25.3133 61.8517 25.4028 61.2353 25.4796 60.4904H25.9403Z" fill="white"/>
<path d="M50.1631 49.0088C50.1631 46.3374 50.1247 43.6789 50.048 41.0333C49.3826 41.0333 48.6788 41.0461 47.9366 41.0718C47.22 41.0718 46.4907 41.0975 45.7485 41.1489C45.0319 41.1745 44.3281 41.2131 43.6372 41.2644C42.9718 41.3158 42.3703 41.38 41.8329 41.4571C41.9609 40.9947 42.0249 40.5838 42.0249 40.2242C42.0249 39.9416 41.9609 39.5435 41.8329 39.0298C43.522 39.0811 45.1727 39.1325 46.785 39.1839C48.3973 39.2096 50.048 39.2224 51.737 39.2224C53.4261 39.2224 55.0768 39.2096 56.6891 39.1839C58.3014 39.1325 59.9521 39.0811 61.6411 39.0298C61.5132 39.5435 61.4492 39.9545 61.4492 40.2627C61.4492 40.5966 61.5132 40.9947 61.6411 41.4571C61.1037 41.38 60.4895 41.3158 59.7985 41.2644C59.1331 41.2131 58.4293 41.1745 57.6872 41.1489C56.9706 41.0975 56.2412 41.0718 55.4991 41.0718C54.7825 41.0461 54.0915 41.0333 53.4261 41.0333C53.3493 43.6789 53.3109 46.3374 53.3109 49.0088V55.6357C53.3109 57.331 53.3365 59.0006 53.3877 60.6445C53.4645 62.2884 53.5413 63.9066 53.618 65.4991C53.0294 65.4478 52.4024 65.4221 51.737 65.4221C51.0716 65.4221 50.4446 65.4478 49.856 65.4991C49.9328 63.9066 49.9968 62.2884 50.048 60.6445C50.1247 59.0006 50.1631 57.331 50.1631 55.6357V49.0088Z" fill="white"/>
<path d="M85.0066 51.5517C85.0066 47.9043 84.9938 45.0917 84.9682 43.1138C84.9426 41.136 84.8786 39.7747 84.7762 39.0298C85.0578 39.0811 85.3265 39.1325 85.5824 39.1839C85.8383 39.2096 86.0942 39.2224 86.3502 39.2224C86.6828 39.2224 87.0667 39.1582 87.5018 39.0298C87.425 39.9288 87.3482 41.0076 87.2715 42.2662C87.1947 43.4991 87.1307 44.8348 87.0795 46.2732C87.0283 47.6859 86.9772 49.15 86.926 50.6655C86.8748 52.1553 86.8364 53.6065 86.8108 55.0193C86.7852 56.7402 86.5165 58.2814 86.0047 59.6427C85.5184 61.0041 84.8146 62.16 83.8933 63.1103C82.972 64.0607 81.8332 64.7799 80.4768 65.268C79.146 65.756 77.6105 66 75.8702 66C72.0314 66 69.2419 65.1267 67.5016 63.38C65.7614 61.6334 64.8912 58.8722 64.8912 55.0963C64.8912 53.8891 64.9168 52.8231 64.968 51.8984C65.0448 50.948 65.0832 49.9848 65.0832 49.0088C65.0832 46.8511 65.0576 44.9375 65.0064 43.268C64.9552 41.5984 64.904 40.1856 64.8529 39.0298C65.16 39.0811 65.4927 39.1325 65.8509 39.1839C66.2092 39.2096 66.5419 39.2224 66.849 39.2224C67.1305 39.2224 67.3993 39.2096 67.6552 39.1839C67.9367 39.1325 68.2182 39.0811 68.4997 39.0298C68.4485 39.5949 68.3973 40.3398 68.3462 41.2644C68.295 42.1635 68.2438 43.1909 68.1926 44.3468C68.1414 45.5026 68.103 46.7484 68.0774 48.0841C68.0518 49.4197 68.0391 50.8068 68.0391 52.2452C68.0391 53.1185 68.0518 54.0304 68.0774 54.9807C68.103 55.9054 68.1926 56.8173 68.3462 57.7163C68.4997 58.5896 68.7428 59.4372 69.0755 60.2592C69.4338 61.0555 69.9329 61.7618 70.5727 62.3783C71.2125 62.9691 72.0186 63.4443 72.9911 63.8039C73.9636 64.1378 75.1664 64.3047 76.5996 64.3047C78.0071 64.3047 79.1844 64.0992 80.1313 63.6883C81.1038 63.2773 81.8971 62.7379 82.5114 62.0701C83.1256 61.4022 83.599 60.6316 83.9317 59.7583C84.29 58.885 84.5459 57.9731 84.6995 57.0228C84.853 56.0724 84.9426 55.122 84.9682 54.1716C84.9938 53.2213 85.0066 52.3479 85.0066 51.5517Z" fill="white"/>
<path d="M93.733 49.0088C93.733 47.3135 93.6946 45.6567 93.6178 44.0385C93.5666 42.3946 93.5026 40.725 93.4258 39.0298C94.3983 39.0811 95.358 39.1325 96.3049 39.1839C97.2774 39.2096 98.2499 39.2224 99.2224 39.2224C100.195 39.2224 101.155 39.1967 102.102 39.1454C103.074 39.0683 104.047 39.0298 105.019 39.0298C107.271 39.0298 109.191 39.3252 110.777 39.9159C112.39 40.5067 113.708 41.3544 114.731 42.4588C115.755 43.5377 116.497 44.8733 116.958 46.4659C117.444 48.0327 117.687 49.805 117.687 51.7828C117.687 54.3514 117.239 56.5219 116.344 58.2942C115.473 60.0409 114.347 61.4536 112.965 62.5324C111.609 63.6112 110.099 64.3818 108.436 64.8441C106.798 65.2808 105.224 65.4991 103.714 65.4991C102.844 65.4991 101.986 65.4863 101.142 65.4606C100.297 65.4349 99.44 65.4221 98.5698 65.4221C97.6997 65.4221 96.8424 65.4221 95.9978 65.4221C95.1533 65.4221 94.296 65.4478 93.4258 65.4991C93.5026 63.9066 93.5666 62.2884 93.6178 60.6445C93.6946 59.0006 93.733 57.331 93.733 55.6357V49.0088ZM96.8808 55.6357C96.8808 58.4098 96.9576 61.1325 97.1111 63.8039C97.6485 63.9323 98.3779 64.035 99.2992 64.1121C100.221 64.1635 101.167 64.1891 102.14 64.1891C103.547 64.1891 104.955 64.0222 106.363 63.6883C107.77 63.3544 109.024 62.725 110.125 61.8004C111.251 60.8757 112.159 59.6171 112.85 58.0245C113.567 56.4063 113.925 54.3257 113.925 51.7828C113.925 49.5482 113.644 47.7116 113.081 46.2732C112.543 44.8348 111.788 43.7046 110.816 42.8827C109.869 42.035 108.73 41.4571 107.399 41.1489C106.068 40.8149 104.61 40.648 103.023 40.648C101.871 40.648 100.796 40.6865 99.7983 40.7636C98.8002 40.8406 97.9045 40.9305 97.1111 41.0333C97.0343 42.2662 96.9703 43.5633 96.9192 44.9247C96.8936 46.2604 96.8808 47.6217 96.8808 49.0088V55.6357Z" fill="white"/>
<path d="M122.46 49.0088C122.46 47.3135 122.421 45.6567 122.344 44.0385C122.293 42.3946 122.229 40.725 122.152 39.0298C122.485 39.0811 122.805 39.1325 123.112 39.1839C123.419 39.2096 123.726 39.2224 124.033 39.2224C124.341 39.2224 124.648 39.2096 124.955 39.1839C125.262 39.1325 125.582 39.0811 125.914 39.0298C125.838 40.725 125.761 42.3946 125.684 44.0385C125.633 45.6567 125.607 47.3135 125.607 49.0088V55.6357C125.607 57.331 125.633 59.0006 125.684 60.6445C125.761 62.2884 125.838 63.9066 125.914 65.4991C125.326 65.4478 124.699 65.4221 124.033 65.4221C123.368 65.4221 122.741 65.4478 122.152 65.4991C122.229 63.9066 122.293 62.2884 122.344 60.6445C122.421 59.0006 122.46 57.331 122.46 55.6357V49.0088Z" fill="white"/>
<path d="M129.842 52.3222C129.842 50.1389 130.188 48.1997 130.879 46.5044C131.595 44.7834 132.581 43.3322 133.835 42.1506C135.114 40.9691 136.637 40.0701 138.403 39.4536C140.169 38.8371 142.101 38.5289 144.199 38.5289C146.324 38.5289 148.269 38.8371 150.034 39.4536C151.8 40.0701 153.31 40.9691 154.564 42.1506C155.844 43.3322 156.829 44.7834 157.52 46.5044C158.237 48.1997 158.595 50.1389 158.595 52.3222C158.595 54.5055 158.237 56.4577 157.52 58.1786C156.829 59.8739 155.844 61.3123 154.564 62.4939C153.31 63.6754 151.8 64.5616 150.034 65.1524C148.269 65.7175 146.324 66 144.199 66C142.101 66 140.169 65.7175 138.403 65.1524C136.637 64.5616 135.114 63.6754 133.835 62.4939C132.581 61.3123 131.595 59.8739 130.879 58.1786C130.188 56.4577 129.842 54.5055 129.842 52.3222ZM154.833 52.3222C154.833 50.1903 154.564 48.3538 154.027 46.8126C153.489 45.2458 152.734 43.9615 151.762 42.9597C150.815 41.9323 149.689 41.1745 148.384 40.6865C147.104 40.1985 145.709 39.9545 144.199 39.9545C142.715 39.9545 141.32 40.1985 140.015 40.6865C138.736 41.1745 137.61 41.9323 136.637 42.9597C135.69 43.9615 134.948 45.2458 134.411 46.8126C133.873 48.3538 133.604 50.1903 133.604 52.3222C133.604 54.4542 133.873 56.3036 134.411 57.8704C134.948 59.4116 135.69 60.6959 136.637 61.7233C137.61 62.725 138.736 63.4699 140.015 63.958C141.32 64.446 142.715 64.69 144.199 64.69C145.709 64.69 147.104 64.446 148.384 63.958C149.689 63.4699 150.815 62.725 151.762 61.7233C152.734 60.6959 153.489 59.4116 154.027 57.8704C154.564 56.3036 154.833 54.4542 154.833 52.3222Z" fill="white"/>
</g>
</svg>
