<svg width="27" height="17" viewBox="0 0 27 17" fill="none" xmlns="http://www.w3.org/2000/svg">
<path d="M12.3889 1.768C12.8986 2.4735 13.1534 3.315 13.1534 4.2993C13.1534 5.3108 12.8986 6.1268 12.3822 6.7422C12.0919 7.0839 11.6683 7.4001 11.108 7.684C11.9586 7.9934 12.5999 8.4813 13.037 9.1477C13.469 9.8141 13.6867 10.625 13.6867 11.577C13.6867 12.5596 13.4387 13.4419 12.9425 14.2205C12.6286 14.7356 12.2337 15.1725 11.7611 15.5244C11.2027 15.9409 10.5584 16.2255 9.87605 16.3574C9.15037 16.507 8.36562 16.5801 7.51842 16.5801H0V0H8.06353C10.0988 0.0306 11.5384 0.6188 12.3889 1.768ZM3.32633 2.8798V6.5382H7.38341C8.10572 6.5382 8.69471 6.4005 9.14868 6.1268C9.59928 5.8531 9.82711 5.3669 9.82711 4.6716C9.82711 3.8964 9.5284 3.3881 8.93097 3.1382C8.41456 2.9665 7.75638 2.8798 6.95813 2.8798H3.32633ZM3.32633 9.282V13.7037H7.37835C8.10234 13.7037 8.6677 13.6068 9.06936 13.4113C9.8018 13.0475 10.1663 12.3607 10.1663 11.3407C10.1663 10.4754 9.81361 9.8838 9.1048 9.5608C8.70652 9.3823 8.1496 9.2871 7.43404 9.282H3.32633ZM23.7737 4.5696C24.6361 4.9521 25.3449 5.5573 25.9035 6.3835C26.4132 7.1128 26.7406 7.9577 26.8891 8.9182C26.9769 9.4792 27.0106 10.2935 26.9971 11.3526H18.0071C18.0611 12.5817 18.4864 13.4453 19.2998 13.9383C19.7926 14.246 20.3833 14.4007 21.0803 14.4007C21.8127 14.4007 22.4101 14.2137 22.8692 13.8397C23.1223 13.6357 23.3434 13.3552 23.5341 12.9965H26.8284C26.7406 13.7224 26.3406 14.4619 25.6335 15.2133C24.5281 16.4033 22.9806 17 20.9908 17C19.3471 17 17.8991 16.4985 16.6452 15.4921C15.3862 14.4874 14.7601 12.8503 14.7601 10.5842C14.7601 8.4592 15.3271 6.8289 16.4595 5.695C17.5953 4.5645 19.0635 3.995 20.871 3.995C21.9477 3.9933 22.9147 4.1854 23.7737 4.5696ZM18.9488 7.3389C18.4931 7.8064 18.2062 8.4388 18.0881 9.2361H23.6489C23.5898 8.3844 23.3012 7.7401 22.7898 7.2964C22.2717 6.8561 21.6355 6.6368 20.8744 6.6368C20.0491 6.6385 19.4044 6.8731 18.9488 7.3389ZM17.2544 2.8373H24.4049V0.7735H17.2544V2.8373Z" fill="black"/>
</svg>
