<svg width="19" height="24" viewBox="0 0 19 24" fill="none" xmlns="http://www.w3.org/2000/svg">
<path d="M0 8.61414C0 7.60636 0.216021 6.60577 0.650517 5.61479C1.08501 4.6238 1.70607 3.7024 2.51615 2.85538C3.32623 2.00837 4.38915 1.31971 5.70736 0.791829C7.02558 0.263943 8.48618 0 10.0891 0C12.6912 0 14.8269 0.78463 16.4961 2.35149C18.1654 3.91835 19 5.76595 19 7.89429C19 10.6297 18.293 12.89 16.8766 14.6728C15.4602 16.4556 13.6314 17.3482 11.3902 17.3482C10.6537 17.3482 9.9615 17.1803 9.31589 16.8444C8.67028 16.5084 8.21615 16.1005 7.95349 15.6206L6.97158 19.4118C6.89057 19.7165 6.78256 20.0237 6.65245 20.3356C6.52235 20.6475 6.37752 20.9475 6.22287 21.2354C6.06822 21.5233 5.91111 21.7945 5.75646 22.0512C5.60181 22.308 5.4447 22.5479 5.29005 22.7711C5.1354 22.9942 5.00039 23.1838 4.88501 23.335C4.76964 23.4861 4.66408 23.6181 4.56589 23.7309L4.4186 23.9228C4.36951 23.9876 4.30323 24.0116 4.22222 23.9948C4.14121 23.978 4.09212 23.93 4.07494 23.8508C4.07494 23.834 4.06266 23.7237 4.03811 23.5149C4.01357 23.3062 3.98902 23.0878 3.96447 22.8551C3.93992 22.6223 3.91537 22.3224 3.89083 21.9553C3.86628 21.5881 3.85891 21.2306 3.86628 20.8875C3.87364 20.5444 3.89819 20.1628 3.93992 19.7477C3.98165 19.3326 4.04302 18.9487 4.12403 18.596C4.30323 17.8449 4.90956 15.3399 5.94057 11.0856C5.81047 10.8289 5.70246 10.5217 5.62145 10.1618C5.54044 9.80188 5.49871 9.50914 5.49871 9.28599L5.47416 8.92607C5.47416 7.90149 5.73928 7.04968 6.27196 6.37062C6.80465 5.69157 7.44535 5.35084 8.19897 5.35084C8.8053 5.35084 9.27416 5.5476 9.61047 5.93872C9.94677 6.32983 10.1137 6.82173 10.1137 7.4144C10.1137 7.78152 10.045 8.23502 9.90504 8.7701C9.76512 9.30519 9.58101 9.92185 9.35271 10.6177C9.12442 11.3136 8.95995 11.8774 8.86176 12.3093C8.69729 13.0292 8.84212 13.653 9.29134 14.1809C9.74057 14.7088 10.342 14.9728 11.0956 14.9728C12.3893 14.9728 13.4571 14.2577 14.2991 12.8252C15.1411 11.3927 15.5633 9.66271 15.5633 7.63035C15.5633 6.07789 15.0478 4.81096 14.0168 3.82717C12.9858 2.84339 11.5448 2.35149 9.69638 2.35149C7.63437 2.35149 5.96021 2.99935 4.67636 4.29507C3.39251 5.59079 2.74935 7.14326 2.74935 8.95007C2.74935 10.0226 3.06111 10.9248 3.68217 11.6615C3.89574 11.9014 3.95956 12.1582 3.87855 12.4293C3.84664 12.5085 3.79755 12.6933 3.73127 12.9812C3.66499 13.2691 3.61589 13.4539 3.58398 13.5331C3.55207 13.7082 3.4686 13.8258 3.3385 13.881C3.2084 13.9362 3.06111 13.9338 2.89664 13.869C1.93191 13.4851 1.20775 12.8252 0.72416 11.8894C0.240568 10.9536 0 9.86187 0 8.61414Z" fill="black"/>
</svg>
